<?xml version="1.0" encoding="UTF-8"?>
<svg version="1.1" xmlns="http://www.w3.org/2000/svg" width="1920" height="159">
<path d="M0 0 C1.85480736 -0.00424107 1.85480736 -0.00424107 3.74708557 -0.00856781 C9.65084542 -0.02191087 15.55459006 -0.03185248 21.45836401 -0.0357697 C27.40703613 -0.03974825 33.35557256 -0.0522699 39.30419922 -0.078125 C87.91072868 -0.28467315 136.46120934 1.01141551 184.84375 5.953125 C186.79817724 6.14626952 188.75260509 6.33940808 190.70706367 6.53223515 C243.7909899 11.79144158 296.40124023 20.23215303 348.98828125 29.0546875 C350.51065305 29.31009371 350.51065305 29.31009371 352.06377983 29.57065964 C354.13450523 29.91808158 356.20522939 30.26551091 358.27595234 30.61294746 C430.56286932 42.74095376 502.89618073 53.92555442 575.96875 60.203125 C577.08260071 60.29938171 578.19645142 60.39563843 579.34405518 60.49481201 C664.40867096 67.81768173 749.67390981 70.83982615 1025.96875 64.203125 C1027.34569912 64.13387817 1027.34569912 64.13387817 1028.75046539 64.06323242 C1127.77338382 59.07246794 1226.6543957 51.77441757 1670.02490234 7.79296875 C1671.15747325 7.65807226 1671.15747325 7.65807226 1672.31292439 7.52045059 C1675.79158565 7.10599607 1679.27000721 6.68975942 1682.74790955 6.26898193 C1683.9323616 6.12704407 1685.11681366 5.9851062 1686.3371582 5.83886719 C1687.36057816 5.71517761 1688.38399811 5.59148804 1689.43843079 5.46405029 C1691.96875 5.203125 1691.96875 5.203125 1694.96875 5.203125 C1694.96875 56.023125 1694.96875 106.843125 1694.96875 159.203125 C1061.36875 159.203125 427.76875 159.203125 -225.03125 159.203125 C-225.03125 114.653125 -225.03125 70.103125 -225.03125 24.203125 C-215.20720387 21.58337936 -205.6175503 19.16616057 -195.65625 17.328125 C-194.98883789 17.20439514 -194.32142578 17.08066528 -193.63378906 16.95318604 C-154.26449162 9.69303791 -114.63021102 5.35789278 -74.71875 2.515625 C-73.87274231 2.45468658 -73.02673462 2.39374817 -72.15509033 2.33096313 C-48.12585312 0.62340151 -24.0850962 0.03843678 0 0 Z " fill="#075876" transform="translate(225.03125,-0.203125)"/>
</svg>
