<?xml version="1.0" encoding="UTF-8"?>
<svg version="1.1" xmlns="http://www.w3.org/2000/svg" width="1920" height="159">
<path d="M0 0 C633.6 0 1267.2 0 1920 0 C1920 44.55 1920 89.1 1920 135 C1910.37615465 137.56635876 1900.93855284 139.99799653 1891.1875 141.875 C1890.54537567 141.99872986 1889.90325134 142.12245972 1889.2416687 142.24993896 C1849.75974721 149.79568283 1809.74983134 153.83554141 1769.6875 156.6875 C1768.84140167 156.74843842 1767.99530334 156.80937683 1767.12356567 156.87216187 C1743.05914205 158.5822448 1718.98361421 159.16477987 1694.86328125 159.203125 C1693.62299856 159.20595238 1692.38271587 159.20877975 1691.10484886 159.21169281 C1685.18667894 159.22503306 1679.26852417 159.23497695 1673.35034019 159.2388947 C1667.37955995 159.24287859 1661.4089716 159.2554332 1655.43823242 159.28125 C1606.77710212 159.48719721 1558.15586269 157.95826407 1509.6953125 153.2734375 C1508.70532257 153.17839935 1507.71533264 153.08336121 1506.69534302 152.98544312 C1447.01172504 147.12412706 1387.87498542 137.19559873 1328.76385498 127.2689209 C1327.11340363 126.99177878 1325.46295197 126.71463848 1323.8125 126.4375 C1322.99691872 126.300522 1322.18133743 126.16354401 1321.34104156 126.02241516 C1270.39105951 117.46841102 1219.37229562 109.58125917 1168 104 C1166.8648999 103.87580688 1165.7297998 103.75161377 1164.56030273 103.62365723 C1107.12637348 97.34927956 1049.70930866 93.43259106 992 91 C990.31644409 90.92880447 990.31644409 90.92880447 988.59887695 90.85617065 C923.80731128 88.13590954 858.81829717 88.14792814 794 90 C793.24924698 90.0213501 792.49849396 90.0427002 791.72499084 90.06469727 C697.08175308 92.7643491 602.66874097 98.16636441 96.8125 143.0625 C96.08133122 143.14318537 95.35016245 143.22387074 94.59683704 143.30700111 C49.90840276 148.2003054 49.90840276 148.2003054 5.29716492 153.74290466 C3 154 3 154 0 154 C0 103.18 0 52.36 0 0 Z " fill="#064131" transform="translate(0,0)"/>
</svg>
